<?xml version="1.0" encoding="UTF-8" standalone="no"?>
<!-- Created with Inkscape (http://www.inkscape.org/) -->

<svg
   width="297mm"
   height="210mm"
   viewBox="0 0 297 210"
   version="1.1"
   id="svg1"
   xml:space="preserve"
   inkscape:version="1.4.2 (ebf0e940d0, 2025-05-08)"
   sodipodi:docname="hyprlain.svg"
   xmlns:inkscape="http://www.inkscape.org/namespaces/inkscape"
   xmlns:sodipodi="http://sodipodi.sourceforge.net/DTD/sodipodi-0.dtd"
   xmlns="http://www.w3.org/2000/svg"
   xmlns:svg="http://www.w3.org/2000/svg"><sodipodi:namedview
     id="namedview1"
     pagecolor="#505050"
     bordercolor="#ffffff"
     borderopacity="1"
     inkscape:showpageshadow="0"
     inkscape:pageopacity="0"
     inkscape:pagecheckerboard="1"
     inkscape:deskcolor="#505050"
     inkscape:document-units="mm"
     inkscape:zoom="1.4142136"
     inkscape:cx="512.65242"
     inkscape:cy="397.04046"
     inkscape:window-width="1904"
     inkscape:window-height="1064"
     inkscape:window-x="0"
     inkscape:window-y="0"
     inkscape:window-maximized="1"
     inkscape:current-layer="layer3"
     showgrid="true"
     showguides="true"
     inkscape:lockguides="false"><inkscape:grid
       id="grid65547"
       units="mm"
       originx="0"
       originy="0"
       spacingx="1"
       spacingy="1"
       empcolor="#0099e5"
       empopacity="0.10196078"
       color="#0099e5"
       opacity="0.05098039"
       empspacing="10"
       enabled="false"
       visible="true"
       snapvisiblegridlinesonly="false"
       dotted="true" /></sodipodi:namedview><defs
     id="defs1"><inkscape:path-effect
       effect="simplify"
       id="path-effect65555"
       is_visible="true"
       lpeversion="1.3"
       threshold="98.784316"
       steps="50"
       smooth_angles="360"
       helper_size="30"
       simplify_individual_paths="true"
       simplify_just_coalesce="false" /><inkscape:path-effect
       effect="simplify"
       id="path-effect65554"
       is_visible="true"
       lpeversion="1.3"
       threshold="5"
       steps="1"
       smooth_angles="360"
       helper_size="10"
       simplify_individual_paths="false"
       simplify_just_coalesce="false" /></defs><g
     inkscape:groupmode="layer"
     id="layer3"
     inkscape:label="Logo"
     transform="matrix(1.2555088,0,0,1.2555088,-38.058102,-93.49741)"><path
       style="fill:#c18eb8;fill-opacity:1;stroke:#965363;stroke-width:5.17718394;stroke-linecap:round;stroke-linejoin:round;stroke-dasharray:none;stroke-opacity:1"
       d="m 169.22143,133.81419 c 0,0 14.40381,8.48897 14.40381,14.13758 0,5.6486 -14.41335,13.72753 -14.41335,13.72753 0,0 13.54173,-8.07893 13.54173,-13.72753 0,-5.64861 -13.53219,-14.13758 -13.53219,-14.13758 z"
       id="path7"
       inkscape:label="bracciodxborder"
       sodipodi:nodetypes="cscsc" /><path
       style="fill:#c18eb8;fill-opacity:1;stroke:#965363;stroke-width:5.17718394;stroke-linecap:round;stroke-linejoin:round;stroke-dasharray:none;stroke-opacity:1"
       d="m 126.36884,133.81419 c 0,0 -14.4038,8.48897 -14.4038,14.13758 0,5.6486 14.41336,13.72753 14.41336,13.72753 0,0 -13.54174,-8.07893 -13.54174,-13.72753 0,-5.64861 13.53218,-14.13758 13.53218,-14.13758 z"
       id="path8"
       inkscape:label="bracciosxborder"
       sodipodi:nodetypes="cscsc" /><circle
       style="fill:#ce7688;fill-opacity:1;stroke:#965363;stroke-width:1.27438;stroke-dasharray:none;stroke-opacity:1;paint-order:markers stroke fill"
       id="path65541-9-4"
       r="13.143315"
       cy="147.20374"
       cx="147.99942"
       inkscape:label="pallacn" /><circle
       style="display:inline;fill:#ce7688;fill-opacity:1;stroke:#965363;stroke-width:1.27438;stroke-dasharray:none;stroke-opacity:1;paint-order:markers stroke fill"
       id="path65541-3"
       cy="166.5835"
       cx="180.25734"
       inkscape:label="palladx"
       r="3.5048835" /><circle
       style="display:inline;fill:#ce7688;fill-opacity:1;stroke:#965363;stroke-width:1.27438;stroke-dasharray:none;stroke-opacity:1;paint-order:markers stroke fill"
       id="path65541-3-9"
       cy="166.5835"
       cx="115.68724"
       inkscape:label="pallasx"
       r="3.5048835" /><circle
       style="display:inline;fill:#ce7688;fill-opacity:1;stroke:#965363;stroke-width:1.27438;stroke-dasharray:none;stroke-opacity:1;paint-order:markers stroke fill"
       id="path65541-3-2"
       cy="118.4363"
       cx="147.99942"
       inkscape:label="pallaup"
       r="3.5048835" /><path
       style="fill:#ce7688;fill-opacity:1;stroke:#965363;stroke-width:1.27438;stroke-dasharray:none;stroke-opacity:1;paint-order:markers stroke fill"
       d="m 145.50698,125.39124 c -1.26399,0.17707 -2.52806,0.34185 -3.76865,0.61648 -1.05509,0.37946 -2.12902,0.73344 -3.17976,1.18983 -4.39438,1.98643 -8.07427,5.51718 -10.18376,9.862 -0.65186,1.1963 -1.07736,2.47259 -1.57194,3.7145 -0.23636,1.0679 -0.44081,2.13887 -0.65445,3.21317 -0.0496,2.01463 -0.10838,4.04225 0.038,6.05162 0.35504,1.14384 0.22603,2.41742 0.73584,3.51627 0.17413,1.09872 0.58539,2.14954 1.01452,3.16167 1.40847,3.85955 3.76174,7.29497 6.15345,10.61371 1.95708,2.62769 4.08575,5.12252 5.97428,7.80198 1.66056,2.28772 3.22702,4.63117 4.85267,6.93863 0.90688,0.25436 0.47792,-1.64091 0.64958,-2.32062 0.0339,-1.88219 0.10156,-3.78255 -0.17627,-5.6496 -0.70774,-1.42236 -1.78179,-2.63274 -2.62558,-3.98034 -1.92533,-2.76459 -4.09818,-5.34354 -6.11475,-8.03894 -0.70745,-0.88133 -1.18915,-1.93161 -1.92407,-2.79594 -0.65151,-1.18822 -1.36425,-2.32234 -1.86021,-3.58159 -0.49818,-1.14742 -1.07546,-2.28637 -1.32798,-3.50312 -0.20854,-1.14675 -0.71389,-2.23584 -0.6815,-3.43726 0.0125,-1.77197 -0.16704,-3.59298 0.23391,-5.32021 0.19182,-1.00243 0.57398,-1.93069 0.81038,-2.92057 0.98435,-2.10641 2.15352,-4.20096 3.87594,-5.80795 1.4026,-1.44006 3.01038,-2.72612 4.91844,-3.41016 1.03206,-0.54825 2.15547,-0.90204 3.28967,-1.09421 1.21171,-0.27648 2.4675,-0.37412 3.72524,-0.33771 1.34907,0.009 2.7347,-0.0609 4.03053,0.31287 1.18121,0.13298 2.33416,0.49952 3.40532,1.03982 1.43181,0.56239 2.78428,1.32951 3.90943,2.39348 1.64546,1.42611 3.10365,3.08037 4.10113,5.0278 0.69232,1.05835 1.03474,2.28853 1.41749,3.44375 0.28586,1.14643 0.62869,2.30275 0.5828,3.51986 -0.0151,1.77549 0.13965,3.60705 -0.32924,5.31864 -0.30293,1.00593 -0.63729,1.97557 -0.87019,2.98779 -0.45852,0.9637 -0.79216,1.96867 -1.32791,2.90562 -0.55364,1.05689 -1.11046,2.15533 -1.83476,3.11385 -2.63574,4.02419 -5.92531,7.57114 -8.5329,11.61885 -0.68863,1.12095 -1.85628,2.11581 -1.74344,3.55184 -0.10594,2.38957 -0.19833,4.79834 0.0507,7.18035 0.71503,0.45902 1.07867,-1.45226 1.6906,-1.91217 1.65348,-2.38935 3.31725,-4.78692 5.06121,-7.11913 2.15303,-2.8973 4.54473,-5.61885 6.50858,-8.65735 1.84299,-2.68919 3.46217,-5.58523 4.54972,-8.64101 0.40692,-0.98336 0.62034,-2.03971 0.92994,-3.04401 0.20689,-1.31163 0.50151,-2.60779 0.57467,-3.94126 0.004,-1.75745 0.0755,-3.52342 -0.0676,-5.27531 -0.29325,-1.02875 -0.33611,-2.13719 -0.73585,-3.12836 -0.95911,-2.95892 -2.49507,-5.8125 -4.57304,-8.17177 -1.98487,-2.22306 -4.43642,-4.0338 -7.16379,-5.23051 -1.13104,-0.50791 -2.27245,-0.90485 -3.46571,-1.18371 -1.15172,-0.38866 -2.38257,-0.38515 -3.5697,-0.62736 -1.59538,-0.0561 -3.21257,-0.10816 -4.80104,0.0358 z"
       id="path3"
       inkscape:label="Hypr" /><path
       style="fill:#c18eb8;fill-opacity:1;stroke:#ce7688;stroke-width:3.98244919;stroke-linecap:round;stroke-linejoin:round;stroke-dasharray:none;stroke-opacity:1"
       d="m 169.22143,133.81419 c 0,0 14.40381,8.48897 14.40381,14.13758 0,5.6486 -14.41335,13.72753 -14.41335,13.72753 0,0 13.54173,-8.07893 13.54173,-13.72753 0,-5.64861 -13.53219,-14.13758 -13.53219,-14.13758 z"
       id="path9"
       inkscape:label="bracciodx"
       sodipodi:nodetypes="cscsc" /><path
       style="fill:#c18eb8;fill-opacity:1;stroke:#ce7688;stroke-width:3.98244919;stroke-linecap:round;stroke-linejoin:round;stroke-dasharray:none;stroke-opacity:1"
       d="m 126.36884,133.81419 c 0,0 -14.4038,8.48897 -14.4038,14.13758 0,5.6486 14.41336,13.72753 14.41336,13.72753 0,0 -13.54174,-8.07893 -13.54174,-13.72753 0,-5.64861 13.53218,-14.13758 13.53218,-14.13758 z"
       id="path10"
       inkscape:label="bracciosx"
       sodipodi:nodetypes="cscsc" /></g><text
     xml:space="preserve"
     style="font-style:normal;font-variant:normal;font-weight:500;font-stretch:normal;font-size:31.0878px;font-family:LondonBetween;-inkscape-font-specification:'LondonBetween Medium';text-align:start;letter-spacing:0px;writing-mode:lr-tb;direction:ltr;text-anchor:start;display:inline;fill:#000000;stroke-width:1.6;stroke-miterlimit:4;stroke-dasharray:none;paint-order:markers stroke fill"
     x="85.220802"
     y="98.45282"
     id="text1"
     inkscape:label="Text"><tspan
       sodipodi:role="line"
       id="tspan1"
       style="font-size:31.0878px;letter-spacing:0px;fill:#965363;fill-opacity:1;stroke-width:1.6;stroke-miterlimit:4;stroke-dasharray:none;paint-order:markers stroke fill"
       x="85.220802"
       y="98.45282"><tspan
         style="letter-spacing:0px;fill:#c1b48e;fill-opacity:1;stroke:#968c6e;stroke-width:1.6;stroke-linecap:square;stroke-linejoin:miter;stroke-miterlimit:4;stroke-dasharray:none;stroke-opacity:1;paint-order:markers stroke fill"
         id="tspan65549">Hypr</tspan><tspan
         style="font-style:normal;font-variant:normal;font-weight:500;font-stretch:normal;font-family:TrixieCyrG-Plain;-inkscape-font-specification:'TrixieCyrG-Plain Medium';letter-spacing:-3.1485px;fill:#965363;fill-opacity:1;stroke-width:1.6;stroke-linecap:butt;stroke-linejoin:round;stroke-miterlimit:4;stroke-dasharray:none;paint-order:markers stroke fill"
         id="tspan3"><tspan
           style="letter-spacing:-3.1485px;fill:#5a5341;fill-opacity:1;stroke:#221f18;stroke-width:1.6;stroke-linecap:butt;stroke-linejoin:round;stroke-miterlimit:4;stroke-dasharray:none;stroke-opacity:1;paint-order:markers stroke fill"
           id="tspan65550">la</tspan><tspan
           style="letter-spacing:-3.1485px;fill:#000000;fill-opacity:1;stroke:#1a1a1a;stroke-width:1.6;stroke-linecap:butt;stroke-linejoin:round;stroke-miterlimit:4;stroke-dasharray:none;stroke-opacity:1;paint-order:markers stroke fill"
           id="tspan65551">in</tspan></tspan></tspan></text></svg>
