<?xml version="1.0" encoding="UTF-8" standalone="no"?>
<!-- Created with Inkscape (http://www.inkscape.org/) -->

<svg
   width="128mm"
   height="96mm"
   viewBox="0 0 127.99999 96"
   version="1.1"
   id="svg1"
   xml:space="preserve"
   inkscape:version="1.4.2 (ebf0e940d0, 2025-05-08)"
   sodipodi:docname="logo.svg"
   xmlns:inkscape="http://www.inkscape.org/namespaces/inkscape"
   xmlns:sodipodi="http://sodipodi.sourceforge.net/DTD/sodipodi-0.dtd"
   xmlns="http://www.w3.org/2000/svg"
   xmlns:svg="http://www.w3.org/2000/svg"><sodipodi:namedview
     id="namedview1"
     pagecolor="#505050"
     bordercolor="#ffffff"
     borderopacity="1"
     inkscape:showpageshadow="0"
     inkscape:pageopacity="0"
     inkscape:pagecheckerboard="1"
     inkscape:deskcolor="#505050"
     inkscape:document-units="mm"
     inkscape:zoom="1.4142136"
     inkscape:cx="231.93102"
     inkscape:cy="148.84597"
     inkscape:window-width="1904"
     inkscape:window-height="1040"
     inkscape:window-x="0"
     inkscape:window-y="0"
     inkscape:window-maximized="1"
     inkscape:current-layer="svg1"
     showgrid="true"
     showguides="true"
     inkscape:lockguides="false"><inkscape:grid
       id="grid65547"
       units="mm"
       originx="-3.5332047e-08"
       originy="2.0414006e-06"
       spacingx="1"
       spacingy="1"
       empcolor="#0099e5"
       empopacity="0.10196078"
       color="#0099e5"
       opacity="0.0509804"
       empspacing="10"
       enabled="false"
       visible="true"
       snapvisiblegridlinesonly="false"
       dotted="true" /><inkscape:page
       x="0"
       y="0"
       width="127.99998"
       height="96"
       id="page1"
       margin="0"
       bleed="0" /></sodipodi:namedview><defs
     id="defs1"><style
       id="style1">
      .st0 {
        fill: url(#a);
      }

      .st1 {
        fill: url(#b);
      }

      .st2 {
        fill: url(#c);
      }

      .st3 {
        fill: url(#d);
      }

      .st4 {
        fill: url(#e);
      }

      .st5 {
        fill: url(#f);
      }

      .st6 {
        fill: url(#g);
      }

      .st7 {
        fill: url(#h);
      }

      .st8 {
        fill: url(#i);
      }
    </style><style
       class="darkreader darkreader--sync"
       media="screen"
       id="style2" /></defs><g
     inkscape:groupmode="layer"
     id="layer3"
     inkscape:label="Logo"
     transform="matrix(1.2555088,0,0,1.2555088,-34.937816,-90.008867)"
     clip-path="none"><path
       style="fill:#c18eb8;fill-opacity:1;stroke:#965363;stroke-width:5.17718;stroke-linecap:round;stroke-linejoin:round;stroke-dasharray:none;stroke-opacity:1"
       d="m 100.61928,93.542638 c 0,0 14.40381,8.488972 14.40381,14.137582 0,5.6486 -14.41335,13.72753 -14.41335,13.72753 0,0 13.54173,-8.07893 13.54173,-13.72753 0,-5.64861 -13.53219,-14.137582 -13.53219,-14.137582 z"
       id="path7"
       inkscape:label="bracciodxborder"
       sodipodi:nodetypes="cscsc" /><path
       style="fill:#c18eb8;fill-opacity:1;stroke:#965363;stroke-width:5.17718;stroke-linecap:round;stroke-linejoin:round;stroke-dasharray:none;stroke-opacity:1"
       d="m 56.986639,93.542658 c 0,0 -14.4038,8.488972 -14.4038,14.137582 0,5.6486 14.41336,13.72753 14.41336,13.72753 0,0 -13.54174,-8.07893 -13.54174,-13.72753 0,-5.64861 13.53218,-14.137582 13.53218,-14.137582 z"
       id="path8"
       inkscape:label="bracciosxborder"
       sodipodi:nodetypes="cscsc" /><path
       style="fill:#c18eb8;fill-opacity:1;stroke:#ce7688;stroke-width:3.98245;stroke-linecap:round;stroke-linejoin:round;stroke-dasharray:none;stroke-opacity:1"
       d="m 100.61928,93.542638 c 0,0 14.40381,8.488972 14.40381,14.137582 0,5.6486 -14.41335,13.72753 -14.41335,13.72753 0,0 13.54173,-8.07893 13.54173,-13.72753 0,-5.64861 -13.53219,-14.137582 -13.53219,-14.137582 z"
       id="path9"
       inkscape:label="bracciodx"
       sodipodi:nodetypes="cscsc" /><path
       style="fill:#c18eb8;fill-opacity:1;stroke:#ce7688;stroke-width:3.98245;stroke-linecap:round;stroke-linejoin:round;stroke-dasharray:none;stroke-opacity:1"
       d="m 56.986639,93.542658 c 0,0 -14.4038,8.488972 -14.4038,14.137582 0,5.6486 14.41336,13.72753 14.41336,13.72753 0,0 -13.54174,-8.07893 -13.54174,-13.72753 0,-5.64861 13.53218,-14.137582 13.53218,-14.137582 z"
       id="path10"
       inkscape:label="bracciosx"
       sodipodi:nodetypes="cscsc" /><circle
       style="fill:#ce7688;fill-opacity:1;stroke:#965363;stroke-width:1.27438;stroke-dasharray:none;stroke-opacity:1;paint-order:markers stroke fill"
       id="path65541-9-4"
       r="13.143315"
       cy="106.9322"
       cx="78.802963"
       inkscape:label="pallacn" /><circle
       style="display:inline;fill:#ce7688;fill-opacity:1;stroke:#965363;stroke-width:1.27438;stroke-dasharray:none;stroke-opacity:1;paint-order:markers stroke fill"
       id="path65541-3"
       cy="126.31197"
       cx="107.82306"
       inkscape:label="palladx"
       r="3.5048835" /><circle
       style="display:inline;fill:#ce7688;fill-opacity:1;stroke:#965363;stroke-width:1.27438;stroke-dasharray:none;stroke-opacity:1;paint-order:markers stroke fill"
       id="path65541-3-9"
       cy="126.31197"
       cx="49.782864"
       inkscape:label="pallasx"
       r="3.5048835" /><circle
       style="display:inline;fill:#ce7688;fill-opacity:1;stroke:#965363;stroke-width:1.27438;stroke-dasharray:none;stroke-opacity:1;paint-order:markers stroke fill"
       id="path65541-3-2"
       cy="78.611809"
       cx="78.802963"
       inkscape:label="pallaup"
       r="3.5048835" /><path
       style="display:none;fill:#ce7688;fill-opacity:1;stroke:#965363;stroke-width:1.27438;stroke-dasharray:none;stroke-opacity:1;paint-order:markers stroke fill"
       d="m 76.310422,85.119705 c -1.26399,0.17707 -2.52806,0.34185 -3.76865,0.61648 -1.05509,0.37946 -2.12902,0.73344 -3.17976,1.18983 -4.39438,1.986433 -8.07427,5.517183 -10.18376,9.862003 -0.65186,1.1963 -1.07736,2.47259 -1.57194,3.714502 -0.23636,1.0679 -0.44081,2.13887 -0.65445,3.21317 -0.0496,2.01463 -0.10838,4.04225 0.038,6.05162 0.35504,1.14384 0.22603,2.41742 0.73584,3.51627 0.17413,1.09872 0.58539,2.14954 1.01452,3.16167 1.40847,3.85955 3.76174,7.29497 6.15345,10.61371 1.95708,2.62769 4.08575,5.12252 5.97428,7.80198 1.66056,2.28772 3.22702,4.63117 4.85267,6.93863 0.90688,0.25436 0.47792,-1.64091 0.64958,-2.32062 0.0339,-1.88219 0.10156,-3.78255 -0.17627,-5.6496 -0.70774,-1.42236 -1.78179,-2.63274 -2.62558,-3.98034 -1.92533,-2.76459 -4.09818,-5.34354 -6.11475,-8.03894 -0.70745,-0.88133 -1.18915,-1.93161 -1.92407,-2.79594 -0.65151,-1.18822 -1.36425,-2.32234 -1.86021,-3.58159 -0.49818,-1.14742 -1.07546,-2.28637 -1.32798,-3.50312 -0.20854,-1.14675 -0.71389,-2.23584 -0.6815,-3.43726 0.0125,-1.77197 -0.16704,-3.59298 0.23391,-5.32021 0.19182,-1.00243 0.57398,-1.93069 0.81038,-2.92057 0.98435,-2.106412 2.15352,-4.200962 3.87594,-5.807952 1.4026,-1.44006 3.01038,-2.72612 4.91844,-3.41016 1.03206,-0.54825 2.15547,-0.90204 3.28967,-1.09421 1.21171,-0.27648 2.467499,-0.37412 3.725239,-0.33771 1.34907,0.009 2.7347,-0.0609 4.03053,0.31287 1.18121,0.13298 2.33416,0.49952 3.40532,1.03982 1.43181,0.56239 2.78428,1.32951 3.90943,2.39348 1.64546,1.42611 3.10365,3.08037 4.10113,5.0278 0.69232,1.05835 1.03474,2.288532 1.41749,3.443752 0.28586,1.14643 0.62869,2.30275 0.5828,3.51986 -0.0151,1.77549 0.13965,3.60705 -0.32924,5.31864 -0.30293,1.00593 -0.63729,1.97557 -0.87019,2.98779 -0.45852,0.9637 -0.79216,1.96867 -1.32791,2.90562 -0.55364,1.05689 -1.11046,2.15533 -1.83476,3.11385 -2.63574,4.02419 -5.92531,7.57114 -8.5329,11.61885 -0.68863,1.12095 -1.85628,2.11581 -1.74344,3.55184 -0.10594,2.38957 -0.19833,4.79834 0.0507,7.18035 0.71503,0.45902 1.07867,-1.45226 1.6906,-1.91217 1.65348,-2.38935 3.31725,-4.78692 5.06121,-7.11913 2.15303,-2.8973 4.54473,-5.61885 6.50858,-8.65735 1.84299,-2.68919 3.46217,-5.58523 4.54972,-8.64101 0.40692,-0.98336 0.62034,-2.03971 0.929939,-3.04401 0.20689,-1.31163 0.50151,-2.60779 0.57467,-3.94126 0.004,-1.75745 0.0755,-3.52342 -0.0676,-5.27531 -0.29325,-1.02875 -0.33611,-2.13719 -0.735849,-3.12836 -0.95911,-2.958922 -2.49507,-5.812502 -4.57304,-8.171772 -1.98487,-2.22306 -4.43642,-4.0338 -7.16379,-5.230513 -1.13104,-0.50791 -2.27245,-0.90485 -3.46571,-1.18371 -1.15172,-0.38866 -2.38257,-0.38515 -3.5697,-0.62736 -1.59538,-0.0561 -3.21257,-0.10816 -4.801039,0.0358 z"
       id="path3"
       inkscape:label="HyprOld" /><path
       d="m 98.930443,116.81162 c -1.68004,3.89099 -4.14375,7.51516 -6.52245,11.0182 -0.43987,0.64536 -0.85389,1.25663 -1.2642,1.86791 -0.58219,0.87057 -1.3714,1.98527 -2.28443,3.27594 -2.08668,2.95044 -5.34513,7.49815 -7.54824,11.23397 v -9.35282 c 2.26965,-3.33459 4.47276,-6.33801 5.65008,-8.09617 2.57645,-3.84746 5.56139,-7.94854 7.332,-12.04771 5.31927,-12.32597 -2.16245,-24.385072 -15.16487,-24.528892 h -0.23287 c -0.0332,0 -0.0645,0 -0.0978,0 -0.0332,0 -0.0647,0 -0.0978,0 h -0.23289 c -13.002399,0.14382 -20.485939,12.202922 -15.164849,24.528892 1.7706,4.10106 4.75368,8.20025 7.33199,12.04771 1.17549,1.75626 3.37858,4.76158 5.65008,8.09617 v 9.35282 c -2.2031,-3.73771 -5.46156,-8.28541 -7.54823,-11.23397 -0.91303,-1.28881 -1.70224,-2.40348 -2.28441,-3.27594 -0.41033,-0.61128 -0.82435,-1.22067 -1.26422,-1.86791 -2.38055,-3.50492 -4.84427,-7.12909 -6.52246,-11.0182 -1.63201,-3.77935 -2.34728,-7.64199 -2.12364,-11.47811 0.21439,-3.71878 1.34551,-7.299412 3.2677,-10.357722 1.90001,-3.02235 4.57257,-5.52804 7.72751,-7.246443 3.26031,-1.77328 6.91985,-2.69683 10.880629,-2.74036 0.0961,0 0.19037,0 0.28832,0 0.0332,0 0.0646,0 0.0978,0 0.0332,0 0.0647,0 0.0979,0 0.0962,0 0.19038,0 0.28834,0 3.96078,0.0435 7.62031,0.9652 10.88063,2.74036 3.15495,1.718403 5.82566,4.224093 7.7275,7.246443 1.92218,3.05831 3.053327,6.638942 3.267717,10.357722 0.22179,3.83612 -0.49348,7.69876 -2.123647,11.47811 z"
       class="st7"
       id="path9-5"
       style="display:inline;fill:#ce7688;fill-opacity:1;stroke:#965363;stroke-width:0.637192;stroke-dasharray:none;stroke-opacity:1"
       inkscape:label="Hypr" /></g><text
     xml:space="preserve"
     style="font-style:normal;font-variant:normal;font-weight:500;font-stretch:normal;font-size:30.3389px;line-height:0;font-family:LondonBetween;-inkscape-font-specification:'LondonBetween Medium';text-align:start;letter-spacing:0px;writing-mode:lr-tb;direction:ltr;text-anchor:start;display:inline;fill:#000000;stroke-width:1.6;stroke-miterlimit:4;stroke-dasharray:none;paint-order:markers stroke fill"
     x="63.241508"
     y="51.208221"
     id="text1"
     inkscape:label="Text"
     clip-path="none"><tspan
       sodipodi:role="line"
       id="tspan1"
       style="font-size:30.3389px;line-height:0;text-align:center;letter-spacing:0px;text-anchor:middle;fill:#965363;fill-opacity:1;stroke-width:1.6;stroke-miterlimit:4;stroke-dasharray:none;paint-order:markers stroke fill"
       x="61.654011"
       y="51.208221"><tspan
         style="font-size:30.3389px;line-height:0;text-align:center;letter-spacing:0px;text-anchor:middle;fill:#c1b48e;fill-opacity:1;stroke:#968c6e;stroke-width:1.6;stroke-linecap:square;stroke-linejoin:miter;stroke-miterlimit:4;stroke-dasharray:none;stroke-opacity:1;paint-order:markers stroke fill"
         id="tspan65549">Hypr</tspan><tspan
         style="font-style:normal;font-variant:normal;font-weight:500;font-stretch:normal;font-size:30.3389px;line-height:0;font-family:TrixieCyrG-Plain;-inkscape-font-specification:'TrixieCyrG-Plain Medium';text-align:center;letter-spacing:-3.175px;text-anchor:middle;fill:#965363;fill-opacity:1;stroke-width:1.6;stroke-linecap:butt;stroke-linejoin:round;stroke-miterlimit:4;stroke-dasharray:none;paint-order:markers stroke fill"
         id="tspan3"><tspan
           style="font-size:30.3389px;line-height:0;text-align:center;letter-spacing:-3.175px;text-anchor:middle;fill:#5a5341;fill-opacity:1;stroke:#221f18;stroke-width:1.6;stroke-linecap:butt;stroke-linejoin:round;stroke-miterlimit:4;stroke-dasharray:none;stroke-opacity:1;paint-order:markers stroke fill"
           id="tspan65550">la</tspan><tspan
           style="font-size:30.3389px;line-height:0;text-align:center;letter-spacing:-3.175px;text-anchor:middle;fill:#000000;fill-opacity:1;stroke:#1a1a1a;stroke-width:1.6;stroke-linecap:butt;stroke-linejoin:round;stroke-miterlimit:4;stroke-dasharray:none;stroke-opacity:1;paint-order:markers stroke fill"
           id="tspan65551">in</tspan></tspan></tspan></text></svg>
